<mxfile host="Electron" agent="Mozilla/5.0 (Windows NT 10.0; Win64; x64) AppleWebKit/537.36 (KHTML, like Gecko) draw.io/28.0.6 Chrome/138.0.7204.100 Electron/37.2.3 Safari/537.36" version="28.0.6">
  <diagram name="Page-1" id="NlITeN1QIrZrgpwNPuuW">
    <mxGraphModel dx="740" dy="496" grid="1" gridSize="10" guides="1" tooltips="1" connect="1" arrows="1" fold="1" page="1" pageScale="1" pageWidth="850" pageHeight="1100" math="0" shadow="0">
      <root>
        <mxCell id="0" />
        <mxCell id="1" parent="0" />
        <mxCell id="9FgRTi7FlsCYYPickxwY-1" value="" style="rounded=0;whiteSpace=wrap;html=1;" vertex="1" parent="1">
          <mxGeometry x="100" y="160" width="360" height="40" as="geometry" />
        </mxCell>
        <mxCell id="9FgRTi7FlsCYYPickxwY-2" value="0" style="rounded=0;whiteSpace=wrap;html=1;" vertex="1" parent="1">
          <mxGeometry x="60" y="160" width="40" height="40" as="geometry" />
        </mxCell>
        <mxCell id="9FgRTi7FlsCYYPickxwY-3" value="1" style="rounded=0;whiteSpace=wrap;html=1;" vertex="1" parent="1">
          <mxGeometry x="100" y="160" width="40" height="40" as="geometry" />
        </mxCell>
        <mxCell id="9FgRTi7FlsCYYPickxwY-4" value="BufferSize&lt;div&gt;-1&lt;/div&gt;" style="rounded=0;whiteSpace=wrap;html=1;" vertex="1" parent="1">
          <mxGeometry x="460" y="160" width="60" height="40" as="geometry" />
        </mxCell>
        <mxCell id="9FgRTi7FlsCYYPickxwY-5" value="2" style="rounded=0;whiteSpace=wrap;html=1;" vertex="1" parent="1">
          <mxGeometry x="150" y="160" width="40" height="40" as="geometry" />
        </mxCell>
        <mxCell id="9FgRTi7FlsCYYPickxwY-6" value="start" style="endArrow=classic;html=1;rounded=0;" edge="1" parent="1">
          <mxGeometry width="50" height="50" relative="1" as="geometry">
            <mxPoint x="219.76" y="90" as="sourcePoint" />
            <mxPoint x="219.76" y="150" as="targetPoint" />
          </mxGeometry>
        </mxCell>
        <mxCell id="9FgRTi7FlsCYYPickxwY-7" value="end" style="endArrow=classic;html=1;rounded=0;" edge="1" parent="1">
          <mxGeometry width="50" height="50" relative="1" as="geometry">
            <mxPoint x="299.76" y="90" as="sourcePoint" />
            <mxPoint x="299.76" y="150" as="targetPoint" />
          </mxGeometry>
        </mxCell>
        <mxCell id="9FgRTi7FlsCYYPickxwY-8" value="3" style="rounded=0;whiteSpace=wrap;html=1;" vertex="1" parent="1">
          <mxGeometry x="200" y="160" width="40" height="40" as="geometry" />
        </mxCell>
        <mxCell id="9FgRTi7FlsCYYPickxwY-9" value="" style="rounded=0;whiteSpace=wrap;html=1;" vertex="1" parent="1">
          <mxGeometry x="160" y="320" width="360" height="40" as="geometry" />
        </mxCell>
        <mxCell id="9FgRTi7FlsCYYPickxwY-10" value="0" style="rounded=0;whiteSpace=wrap;html=1;" vertex="1" parent="1">
          <mxGeometry x="160" y="320" width="40" height="40" as="geometry" />
        </mxCell>
        <mxCell id="9FgRTi7FlsCYYPickxwY-11" value="1" style="rounded=0;whiteSpace=wrap;html=1;" vertex="1" parent="1">
          <mxGeometry x="200" y="320" width="40" height="40" as="geometry" />
        </mxCell>
        <mxCell id="9FgRTi7FlsCYYPickxwY-12" value="BufferSize&lt;div&gt;-1&lt;/div&gt;" style="rounded=0;whiteSpace=wrap;html=1;" vertex="1" parent="1">
          <mxGeometry x="460" y="320" width="60" height="40" as="geometry" />
        </mxCell>
        <mxCell id="9FgRTi7FlsCYYPickxwY-13" value="2" style="rounded=0;whiteSpace=wrap;html=1;" vertex="1" parent="1">
          <mxGeometry x="240" y="320" width="40" height="40" as="geometry" />
        </mxCell>
        <mxCell id="9FgRTi7FlsCYYPickxwY-14" value="start" style="endArrow=classic;html=1;rounded=0;" edge="1" parent="1">
          <mxGeometry width="50" height="50" relative="1" as="geometry">
            <mxPoint x="339.76" y="240" as="sourcePoint" />
            <mxPoint x="339.76" y="300" as="targetPoint" />
          </mxGeometry>
        </mxCell>
        <mxCell id="9FgRTi7FlsCYYPickxwY-15" value="end" style="endArrow=classic;html=1;rounded=0;" edge="1" parent="1">
          <mxGeometry width="50" height="50" relative="1" as="geometry">
            <mxPoint x="219.76" y="240" as="sourcePoint" />
            <mxPoint x="219.76" y="300" as="targetPoint" />
          </mxGeometry>
        </mxCell>
        <mxCell id="9FgRTi7FlsCYYPickxwY-16" value="3" style="rounded=0;whiteSpace=wrap;html=1;" vertex="1" parent="1">
          <mxGeometry x="280" y="320" width="40" height="40" as="geometry" />
        </mxCell>
        <mxCell id="9FgRTi7FlsCYYPickxwY-18" value="4" style="rounded=0;whiteSpace=wrap;html=1;" vertex="1" parent="1">
          <mxGeometry x="320" y="320" width="40" height="40" as="geometry" />
        </mxCell>
        <mxCell id="9FgRTi7FlsCYYPickxwY-20" value="" style="rounded=0;whiteSpace=wrap;html=1;fillColor=#f8cecc;strokeColor=#b85450;" vertex="1" parent="1">
          <mxGeometry x="220" y="70" width="80" height="10" as="geometry" />
        </mxCell>
        <mxCell id="9FgRTi7FlsCYYPickxwY-21" value="" style="rounded=0;whiteSpace=wrap;html=1;fillColor=#f8cecc;strokeColor=#b85450;" vertex="1" parent="1">
          <mxGeometry x="340" y="230" width="180" height="10" as="geometry" />
        </mxCell>
        <mxCell id="9FgRTi7FlsCYYPickxwY-22" value="" style="rounded=0;whiteSpace=wrap;html=1;fillColor=#f8cecc;strokeColor=#b85450;" vertex="1" parent="1">
          <mxGeometry x="160" y="230" width="60" height="10" as="geometry" />
        </mxCell>
        <mxCell id="9FgRTi7FlsCYYPickxwY-23" value="free space 1 (end_to_back)" style="rounded=0;whiteSpace=wrap;html=1;fillColor=#d5e8d4;strokeColor=#82b366;" vertex="1" parent="1">
          <mxGeometry x="300" y="70" width="220" height="20" as="geometry" />
        </mxCell>
        <mxCell id="9FgRTi7FlsCYYPickxwY-24" value="free space 2 (front_to_start)" style="rounded=0;whiteSpace=wrap;html=1;fillColor=#d5e8d4;strokeColor=#82b366;" vertex="1" parent="1">
          <mxGeometry x="60" y="70" width="160" height="20" as="geometry" />
        </mxCell>
        <mxCell id="9FgRTi7FlsCYYPickxwY-25" value="free space 1" style="rounded=0;whiteSpace=wrap;html=1;fillColor=#d5e8d4;strokeColor=#82b366;" vertex="1" parent="1">
          <mxGeometry x="220" y="230" width="120" height="20" as="geometry" />
        </mxCell>
      </root>
    </mxGraphModel>
  </diagram>
</mxfile>
